HIERARCHY
ROOT RootJoint
{
    OFFSET   0.000000   0.000000   0.000000
    CHANNELS 6 Xposition Yposition Zposition Xrotation Yrotation Zrotation
    JOINT pelvis_lowerback
    {
        OFFSET   0.000000   0.093605   0.000000
        CHANNELS 3 Xrotation Yrotation Zrotation
        JOINT lowerback_torso
        {
            OFFSET   0.000000   0.100000   0.000000
            CHANNELS 3 Xrotation Yrotation Zrotation
            JOINT torso_head
            {
                OFFSET   0.000000   0.282350   0.000000
                CHANNELS 3 Xrotation Yrotation Zrotation
                End Site
                {
                    OFFSET   0.000000   0.192650   0.000000
                }
            }
            JOINT rTorso_Clavicle
            {
                OFFSET  -0.001000   0.157500   0.000000
                CHANNELS 3 Xrotation Yrotation Zrotation
                JOINT rShoulder
                {
                    OFFSET  -0.117647   0.000000   0.000000
                    CHANNELS 3 Xrotation Yrotation Zrotation
                    JOINT rElbow
                    {
                        OFFSET  -0.245000   0.000000   0.000000
                        CHANNELS 3 Xrotation Yrotation Zrotation
                        JOINT rWrist
                        {
                            OFFSET  -0.240000   0.000000   0.000000
                            CHANNELS 3 Xrotation Yrotation Zrotation
                            End Site
                            {
                                OFFSET  -0.116353  -0.002500   0.000000
                            }
                        }
                    }
                }
            }
            JOINT lTorso_Clavicle
            {
                OFFSET   0.001000   0.157500   0.000000
                CHANNELS 3 Xrotation Yrotation Zrotation
                JOINT lShoulder
                {
                    OFFSET   0.117647   0.000000   0.000000
                    CHANNELS 3 Xrotation Yrotation Zrotation
                    JOINT lElbow
                    {
                        OFFSET   0.245000   0.000000   0.000000
                        CHANNELS 3 Xrotation Yrotation Zrotation
                        JOINT lWrist
                        {
                            OFFSET   0.240000   0.000000   0.000000
                            CHANNELS 3 Xrotation Yrotation Zrotation
                            End Site
                            {
                                OFFSET   0.116353  -0.002500   0.000000
                            }
                        }
                    }
                }
            }
        }
    }
    JOINT rHip
    {
        OFFSET  -0.100000  -0.051395   0.000000
        CHANNELS 3 Xrotation Yrotation Zrotation
        JOINT rKnee
        {
            OFFSET   0.000000  -0.410000   0.000000
            CHANNELS 3 Xrotation Yrotation Zrotation
            JOINT rAnkle
            {
                OFFSET   0.000000  -0.390000   0.000000
                CHANNELS 3 Xrotation Yrotation Zrotation
                JOINT rToeJoint
                {
                    OFFSET   0.000000  -0.050000   0.130000
                    CHANNELS 3 Xrotation Yrotation Zrotation
                    End Site
                    {
                        OFFSET  -0.010000   0.002000   0.060000
                    }
                }
            }
        }
    }
    JOINT lHip
    {
        OFFSET   0.100000  -0.051395   0.000000
        CHANNELS 3 Xrotation Yrotation Zrotation
        JOINT lKnee
        {
            OFFSET   0.000000  -0.410000   0.000000
            CHANNELS 3 Xrotation Yrotation Zrotation
            JOINT lAnkle
            {
                OFFSET   0.000000  -0.390000   0.000000
                CHANNELS 3 Xrotation Yrotation Zrotation
                JOINT lToeJoint
                {
                    OFFSET   0.000000  -0.050000   0.130000
                    CHANNELS 3 Xrotation Yrotation Zrotation
                    End Site
                    {
                        OFFSET   0.010000   0.002000   0.060000
                    }
                }
            }
        }
    }
}
MOTION
Frames: 14
Frame Time:   0.008333
 -2.376719   0.925631   3.975860   0.000000   0.000000   0.000000   0.000000   0.000000   0.000000   0.000000   0.000000   0.000000   0.000000   0.000000   0.000000   0.000000   0.000000   0.000000   0.000000   0.000000   0.000000   0.000000   0.000000   0.000000   0.000000   0.000000   0.000000   0.000000   0.000000   0.000000   0.000000   0.000000   0.000000   0.000000   0.000000   0.000000   0.000000   0.000000   0.000000   0.000000   0.000000   0.000000   0.000000   0.000000   0.000000   0.000000   0.000000   0.000000   0.000000   0.000000   0.000000   0.000000   0.000000   0.000000   0.000000   0.000000   0.000000   0.000000   0.000000   0.000000   0.000000   0.000000   0.000000
 -2.376500   0.925453   3.973788  -0.068966  -0.145019   0.242737   0.542482   0.196294  -0.192379  -0.174835  -0.154837  -0.188455   0.049931   0.005476   0.124407  -0.222447  -0.335070  -0.258741  -1.259916   0.254457   2.022368   0.048097   3.477243   0.034536  -0.121517  -1.816008  -2.140383  -0.517675   0.420552   0.248106  -2.033582   0.384853  -1.502139   0.041537  -3.592658  -0.069633  -0.126351   1.226219   2.311988  -0.925445  -0.330807  -0.617735   2.869344   0.009038  -0.012323  -2.347178  -0.697953   0.168003  -0.011644  -0.000022   0.000119  -1.386096   0.263868   0.025122   3.500082  -0.007915   0.003798  -1.848966   0.256467  -0.268901  -0.023561  -0.000001  -0.000076
 -2.376241   0.925074   3.971509  -0.329768  -0.440411   0.501493   1.148452   0.477788  -0.394367  -0.200709  -0.211515  -0.393884   0.159927   0.005607   0.227750  -0.436994  -0.450711  -0.037687  -2.473419   0.669574   4.299700   0.107833   7.117418   0.060845  -0.284500  -2.539809  -3.708984  -1.019469   0.731836   0.061096  -3.950354   0.666225  -3.235166   0.089988  -7.317487  -0.123601  -0.311007   1.438615   4.141031  -1.626722  -0.662461  -1.541575   5.894951   0.022733  -0.028714  -4.526409  -1.374364   0.295751  -0.067227  -0.000278   0.000736  -2.736950   0.530431   0.303719   7.144062  -0.022549   0.004030  -3.553342   0.513618  -0.507593  -0.037147   0.000033  -0.000089
 -2.375969   0.924222   3.969142  -0.640042  -0.804830   0.743072   1.731474   0.803740  -0.584384  -0.187023  -0.194301  -0.586250   0.268185   0.005059   0.318332  -0.632182  -0.397192   0.492953  -3.632893   1.138421   6.676161   0.167025  10.813465   0.080659  -0.437499  -2.796527  -4.706969  -1.483211   0.937108  -0.421627  -5.733792   0.911771  -5.076779   0.135030 -11.078989  -0.164538  -0.481817   1.311788   5.420210  -2.171730  -0.972705  -2.683195   8.794253   0.037016  -0.044736  -6.553602  -2.016788   0.388702  -0.104429  -0.000482   0.001031  -4.079142   0.770143   0.823715  10.577435  -0.039777   0.004323  -5.138679   0.764532  -0.720120  -0.037295   0.000027  -0.000071
 -2.375698   0.922713   3.966728  -0.961749  -1.187402   0.963464   2.287669   1.152298  -0.759822  -0.162691  -0.128774  -0.760539   0.361522   0.004473   0.401065  -0.809258  -0.230915   1.212152  -4.738351   1.614409   9.070798   0.219841  14.541188   0.094975  -0.581097  -2.828040  -5.285403  -1.909362   1.067042  -1.087363  -7.387177   1.151677  -6.952171   0.171741 -14.858246  -0.195411  -0.642857   1.063247   6.284381  -2.599707  -1.256977  -3.991975  11.531539   0.050085  -0.058740  -8.443996  -2.623776   0.451486  -0.137967  -0.000680   0.001220  -5.428240   0.973940   1.545588  13.760668  -0.056655   0.006520  -6.618171   1.007792  -0.909772  -0.042173   0.000052  -0.000064
 -2.375442   0.920417   3.964301  -1.283868  -1.560001   1.163714   2.821319   1.510913  -0.921109  -0.130085  -0.031022  -0.916758   0.440217   0.003988   0.477764  -0.970231   0.009429   2.037089  -5.789556   2.073255  11.430022   0.263663  18.288448   0.104465  -0.717632  -2.739346  -5.573409  -2.299640   1.144831  -1.855543  -8.915796   1.399648  -8.808582   0.197980 -18.646605  -0.218507  -0.797980   0.771611   6.859358  -2.931509  -1.513801  -5.427430  14.108689   0.061136  -0.070180 -10.208149  -3.195120   0.488539  -0.170004  -0.000872   0.001343  -6.783515   1.135470   2.429514  16.701903  -0.071372   0.010757  -7.999721   1.242345  -1.079260  -0.052731   0.000121  -0.000069
 -2.375213   0.917245   3.961894  -1.601357  -1.907737   1.345751   3.336019   1.872252  -1.069338  -0.087770   0.089057  -1.056001   0.507006   0.003656   0.549313  -1.117671   0.298175   2.910493  -6.786859   2.503345  13.718381   0.297820  22.048567   0.109817  -0.848504  -2.583135  -5.667430  -2.656623   1.186452  -2.669538 -10.326490   1.660104 -10.610091   0.213298 -22.439796  -0.235778  -0.948743   0.469283   7.241389  -3.181845  -1.743765  -6.954539  16.533250   0.069861  -0.078987 -11.855119  -3.731290   0.503945  -0.200452  -0.001042   0.001408  -8.139810   1.250516   3.438831  19.416804  -0.082989   0.016452  -9.289970   1.467345  -1.230887  -0.067361   0.000221  -0.000085
 -2.375211   0.913008   3.959504  -1.717644  -2.390451   1.333503   3.665498   2.213133  -1.068591  -0.113878   0.313131  -1.082070   0.444760  -0.000117   0.613405  -1.234255   0.469831   3.427919  -7.458125   3.207228  15.921685   0.315944  25.819340   0.102614  -0.932998  -2.413334  -5.338103  -2.933438   1.357395  -3.188876 -12.185068   1.978682 -12.646834   0.208539 -26.203687  -0.268810  -1.141812   0.245104   7.377802  -3.779002  -2.073479  -8.227752  19.015093   0.073273  -0.092937 -13.303398  -4.289814   0.629078  -0.218046  -0.001006   0.001365  -9.317132   1.565552   4.730000  21.006048  -0.081587   0.020223 -10.174394   1.679442  -1.514791   0.212054  -0.001952   0.000782
 -2.375310   0.907752   3.957140  -1.800782  -2.813794   1.285042   3.976797   2.509018  -1.049655  -0.162337   0.523677  -1.087781   0.370374  -0.006337   0.688276  -1.349230   0.665203   3.820618  -8.113351   3.877254  17.931827   0.320391  29.605578   0.096089  -0.997558  -2.176184  -5.008850  -3.191726   1.496649  -3.631675 -13.911497   2.320875 -14.517771   0.190761 -29.971298  -0.295230  -1.347109   0.043979   7.516593  -4.396589  -2.383417  -9.426102  21.338742   0.073001  -0.101511 -14.654888  -4.815094   0.730968  -0.232334  -0.000941   0.001275 -10.438353   1.821864   6.054206  22.341452  -0.077652   0.022709 -11.003888   1.883200  -1.775606   0.482654  -0.003622   0.001534
 -2.375476   0.901526   3.954855  -1.875485  -3.179891   1.233559   4.277689   2.777278  -1.037432  -0.208872   0.714750  -1.096065   0.298288  -0.012806   0.763121  -1.466012   0.872975   4.128305  -8.753138   4.504841  19.775762   0.315592  33.400875   0.090039  -1.051699  -1.897458  -4.761826  -3.435495   1.598696  -4.005825 -15.516591   2.667820 -16.228971   0.163992 -33.746340  -0.316779  -1.539315  -0.177597   7.702346  -4.991366  -2.656802 -10.579645  23.502493   0.070441  -0.105296 -15.918060  -5.306369   0.812392  -0.249190  -0.000909   0.001222 -11.508243   2.026639   7.354025  23.553850  -0.072836   0.024439 -11.779202   2.076989  -2.015791   0.728386  -0.004726   0.002110
 -2.375697   0.894376   3.952688  -1.944427  -3.499077   1.184957   4.565368   3.023620  -1.035478  -0.251915   0.888675  -1.111003   0.231209  -0.018894   0.834153  -1.584314   1.086331   4.371133  -9.375192   5.089783  21.473941   0.304596  37.203060   0.084543  -1.097598  -1.591597  -4.590490  -3.667560   1.669960  -4.320301 -17.010529   3.013335 -17.795038   0.130906 -37.528812  -0.335278  -1.716353  -0.428532   7.931980  -5.556059  -2.895718 -11.687548  25.517553   0.066450  -0.105517 -17.098700  -5.765258   0.876419  -0.267093  -0.000886   0.001176 -12.523910   2.188170   8.610170  24.672764  -0.067604   0.025494 -12.502970   2.260600  -2.237253   0.952439  -0.005388   0.002521
 -2.375942   0.887604   3.950288  -2.092204  -3.770431   1.055690   4.960143   3.246402  -0.977299  -0.250146   1.045098  -1.106255   0.162464  -0.024518   0.902936  -1.706194   1.321142   4.625936  -9.979533   5.637693  23.062442   0.295148  41.004541   0.076462  -1.135945  -1.278482  -4.512719  -3.889877   1.698653  -4.668711 -18.398377   3.355036 -19.268925   0.099045 -41.314835  -0.348297  -1.878442  -0.706451   8.210813  -6.360410  -3.043855 -12.176862  27.059375   0.053979  -0.096758 -19.174441  -5.920873   1.292279  -0.156824  -0.000767   0.000163 -13.426326   2.309667   9.865297  25.691664  -0.061757   0.025978 -13.173980   2.434645  -2.441017   1.187674  -0.005860   0.002947
 -2.376055   0.883867   3.948591  -2.555045  -3.481858   1.069480   5.526283   3.239997  -1.018352  -0.090595   1.023311  -1.143596   0.114466  -0.035789   0.969017  -1.774615   1.498573   5.049594 -10.521801   6.085307  24.624535   0.295831  44.778473   0.064441  -1.174817  -1.056502  -4.459666  -4.094035   1.642042  -5.179088 -19.669228   3.683096 -20.734161   0.072233 -45.095854  -0.361312  -2.025120  -1.002812   8.418740  -7.076074  -3.308323 -12.459310  29.306961   0.039903  -0.084552 -20.031008  -6.158545   1.591729  -0.192395  -0.000559   0.000286 -14.366601   2.901177  10.220927  27.809495  -0.046003   0.044494 -13.333545   2.755219  -3.018080   1.402863  -0.003892   0.005225
 -2.376076   0.881405   3.947695  -2.805494  -3.447249   1.165081   5.878848   3.250052  -1.080242  -0.096912   1.150681  -1.216640   0.037529  -0.039657   0.999739  -1.792633   1.623238   5.238851 -10.879496   6.671643  26.031262   0.287903  48.543207   0.049863  -1.244757  -0.898316  -3.966178  -4.091360   1.739381  -5.448931 -20.772303   4.082406 -22.243559   0.038277 -48.856968  -0.372881  -2.193467  -1.159479   8.416381  -7.659645  -3.651348 -12.824062  30.728003   0.029019  -0.075079 -20.480460  -6.470749   1.602021  -0.011887  -0.000251  -0.001106 -14.869615   3.348579  10.363080  28.883396  -0.035190   0.042222 -12.797782   3.006961  -3.148622   1.512778  -0.003064   0.005076
